<svg height="512pt" viewBox="-3 0 511 512" width="512pt" xmlns="http://www.w3.org/2000/svg"><path d="m144.503906 512c-17.648437 0-32-14.351562-32-32s14.351563-32 32-32c4.421875 0 8 3.574219 8 8s-3.578125 8-8 8c-8.824218 0-16 7.175781-16 16s7.175782 16 16 16c4.421875 0 8 3.574219 8 8s-3.578125 8-8 8zm0 0"/><path d="m440.503906 464h-296c-4.425781 0-8-3.574219-8-8s3.574219-8 8-8h296c4.421875 0 8 3.574219 8 8s-3.578125 8-8 8zm0 0"/><path d="m440.503906 512h-296c-4.425781 0-8-3.574219-8-8s3.574219-8 8-8h296c4.421875 0 8 3.574219 8 8s-3.578125 8-8 8zm0 0"/><path d="m440.503906 464c-4.425781 0-8-3.574219-8-8s3.574219-8 8-8c8.820313 0 16-7.175781 16-16 0-4.425781 3.574219-8 8-8 4.421875 0 8 3.574219 8 8 0 17.648438-14.355468 32-32 32zm0 0"/><path d="m464.503906 40c-4.425781 0-8-3.585938-8-8 0-8.824219-7.179687-16-16-16-4.425781 0-8-3.585938-8-8s3.574219-8 8-8c17.644532 0 32 14.351562 32 32 0 4.414062-3.578125 8-8 8zm0 0"/><path d="m120.503906 40c-4.425781 0-8-3.585938-8-8 0-17.648438 14.351563-32 32-32 4.421875 0 8 3.585938 8 8s-3.578125 8-8 8c-8.824218 0-16 7.175781-16 16 0 4.414062-3.578125 8-8 8zm0 0"/><path d="m440.503906 512c-4.425781 0-8-3.574219-8-8s3.574219-8 8-8c8.820313 0 16-7.175781 16-16 0-4.425781 3.574219-8 8-8 4.421875 0 8 3.574219 8 8 0 17.648438-14.355468 32-32 32zm0 0"/><path d="m464.503906 192c-2.050781 0-4.097656-.785156-5.65625-2.34375-3.128906-3.128906-3.128906-8.183594 0-11.3125l29.65625-29.65625v-92.6875h-24c-4.425781 0-8-3.585938-8-8s3.574219-8 8-8h32c4.421875 0 8 3.585938 8 8v104c0 2.121094-.84375 4.160156-2.347656 5.65625l-32 32c-1.558594 1.558594-3.605469 2.34375-5.652344 2.34375zm0 0"/><path d="m440.503906 16h-296c-4.425781 0-8-3.585938-8-8s3.574219-8 8-8h296c4.421875 0 8 3.585938 8 8s-3.578125 8-8 8zm0 0"/><path d="m120.503906 488c-4.425781 0-8-3.574219-8-8v-448c0-4.414062 3.574219-8 8-8 4.421875 0 8 3.585938 8 8v448c0 4.425781-3.578125 8-8 8zm0 0"/><path d="m432.503906 488h-280c-4.425781 0-8-3.574219-8-8s3.574219-8 8-8h280c4.421875 0 8 3.574219 8 8s-3.578125 8-8 8zm0 0"/><path d="m432.503906 488c-4.425781 0-8-3.574219-8-8v-24c0-4.425781 3.574219-8 8-8 4.421875 0 8 3.574219 8 8v24c0 4.425781-3.578125 8-8 8zm0 0"/><path d="m152.503906 488c-4.425781 0-8-3.574219-8-8v-24c0-4.425781 3.574219-8 8-8 4.421875 0 8 3.574219 8 8v24c0 4.425781-3.578125 8-8 8zm0 0"/><path d="m464.503906 488c-4.425781 0-8-3.574219-8-8v-448c0-4.414062 3.574219-8 8-8 4.421875 0 8 3.585938 8 8v448c0 4.425781-3.578125 8-8 8zm0 0"/><path d="m120.492188 56h-111.988282c-4.425781 0-8-3.585938-8-8s3.574219-8 8-8h111.988282c4.425781 0 8 3.585938 8 8s-3.574219 8-8 8zm0 0"/><path d="m120.492188 456h-71.988282c-4.425781 0-8-3.574219-8-8s3.574219-8 8-8h71.988282c4.425781 0 8 3.574219 8 8s-3.574219 8-8 8zm0 0"/><path d="m8.503906 416c-4.425781 0-8-3.574219-8-8v-360c0-4.414062 3.574219-8 8-8 4.421875 0 8 3.585938 8 8v360c0 4.425781-3.578125 8-8 8zm0 0"/><path d="m48.503906 456c-2.050781 0-4.097656-.785156-5.65625-2.34375l-40-40c-3.128906-3.128906-3.128906-8.183594 0-11.3125 3.125-3.128906 8.183594-3.128906 11.308594 0l40 40c3.128906 3.128906 3.128906 8.183594 0 11.3125-1.558594 1.558594-3.605469 2.34375-5.652344 2.34375zm0 0"/><path d="m48.503906 456c-4.425781 0-8-3.574219-8-8v-40c0-4.425781 3.574219-8 8-8 4.421875 0 8 3.574219 8 8v40c0 4.425781-3.578125 8-8 8zm0 0"/><path d="m48.503906 416h-40c-4.425781 0-8-3.574219-8-8s3.574219-8 8-8h40c4.421875 0 8 3.574219 8 8s-3.578125 8-8 8zm0 0"/><path d="m120.503906 168h-56c-4.425781 0-8-3.585938-8-8s3.574219-8 8-8h56c4.421875 0 8 3.585938 8 8s-3.578125 8-8 8zm0 0"/><path d="m120.503906 216h-56c-4.425781 0-8-3.585938-8-8s3.574219-8 8-8h56c4.421875 0 8 3.585938 8 8s-3.578125 8-8 8zm0 0"/><path d="m120.503906 264h-56c-4.425781 0-8-3.585938-8-8s3.574219-8 8-8h56c4.421875 0 8 3.585938 8 8s-3.578125 8-8 8zm0 0"/><path d="m120.503906 312h-56c-4.425781 0-8-3.574219-8-8s3.574219-8 8-8h56c4.421875 0 8 3.574219 8 8s-3.578125 8-8 8zm0 0"/><path d="m368.445312 136.144531h-143.984374c-4.421876 0-8-3.585937-8-8 0-4.417969 3.578124-8 8-8h143.984374c4.425782 0 8 3.582031 8 8 0 4.414063-3.574218 8-8 8zm0 0"/><path d="m296.460938 296.175781c-4.421876 0-8-3.574219-8-8v-184.03125c0-4.417969 3.578124-8 8-8 4.425781 0 8 3.582031 8 8v184.039063c0 4.417968-3.574219 7.992187-8 7.992187zm0 0"/><path d="m360.460938 296.175781h-128c-4.421876 0-8-3.574219-8-8 0-4.421875 3.578124-8 8-8h128c4.425781 0 8 3.578125 8 8 0 4.425781-3.574219 8-8 8zm0 0"/><path d="m392.492188 352.152344h-192.0625c-4.421876 0-8-3.578125-8-8 0-4.425782 3.578124-8 8-8h192.0625c4.425781 0 8 3.574218 8 8 0 4.421875-3.574219 8-8 8zm0 0"/><path d="m344.492188 376.144531h-96.046876c-4.421874 0-8-3.578125-8-8 0-4.425781 3.578126-8 8-8h96.046876c4.425781 0 8 3.574219 8 8 0 4.421875-3.574219 8-8 8zm0 0"/><path d="m224.460938 232.160156c-17.648438 0-32-14.351562-32-32 0-4.417968 3.578124-8 8-8 4.425781 0 8 3.582032 8 8 0 8.824219 7.175781 16 16 16 8.824218 0 16-7.175781 16-16 0-4.417968 3.578124-8 8-8 4.425781 0 8 3.582032 8 8 0 17.640625-14.351563 32-32 32zm0 0"/><path d="m248.460938 208.160156h-48c-4.421876 0-8-3.585937-8-8 0-4.417968 3.578124-8 8-8h48c4.425781 0 8 3.582032 8 8 0 4.414063-3.574219 8-8 8zm0 0"/><path d="m200.460938 208.160156c-.832032 0-1.6875-.136718-2.527344-.417968-4.183594-1.398438-6.457032-5.925782-5.054688-10.117188l24-72.015625c1.398438-4.183594 5.886719-6.472656 10.117188-5.058594 4.1875 1.402344 6.457031 5.929688 5.058594 10.121094l-24 72.015625c-1.121094 3.351562-4.242188 5.472656-7.59375 5.472656zm0 0"/><path d="m248.460938 208.160156c-3.351563 0-6.472657-2.121094-7.582032-5.472656l-24-72.015625c-1.402344-4.191406.863282-8.71875 5.054688-10.121094 4.214844-1.40625 8.726562.875 10.121094 5.058594l24 72.015625c1.398437 4.191406-.863282 8.71875-5.058594 10.117188-.847656.28125-1.695313.417968-2.535156.417968zm0 0"/><path d="m368.445312 232.160156c-17.648437 0-32-14.351562-32-32 0-4.417968 3.578126-8 8-8 4.425782 0 8 3.582032 8 8 0 8.824219 7.175782 16 16 16 8.824219 0 16-7.175781 16-16 0-4.417968 3.578126-8 8-8 4.425782 0 8 3.582032 8 8 0 17.640625-14.351562 32-32 32zm0 0"/><path d="m392.445312 208.160156h-48c-4.421874 0-8-3.585937-8-8 0-4.417968 3.578126-8 8-8h48c4.425782 0 8 3.582032 8 8 0 4.414063-3.574218 8-8 8zm0 0"/><path d="m344.445312 208.160156c-.832031 0-1.6875-.136718-2.527343-.417968-4.183594-1.398438-6.457031-5.925782-5.054688-10.117188l24-72.015625c1.398438-4.183594 5.878907-6.472656 10.117188-5.058594 4.183593 1.402344 6.457031 5.929688 5.058593 10.121094l-24 72.015625c-1.121093 3.351562-4.242187 5.472656-7.59375 5.472656zm0 0"/><path d="m392.445312 208.160156c-3.351562 0-6.472656-2.121094-7.582031-5.472656l-24-72.015625c-1.402343-4.191406.863281-8.71875 5.054688-10.121094 4.214843-1.40625 8.71875.875 10.121093 5.058594l24 72.015625c1.398438 4.191406-.863281 8.71875-5.058593 10.117188-.847657.28125-1.695313.417968-2.535157.417968zm0 0"/></svg>