<?xml version="1.0" encoding="utf-8"?>
<svg id="master-artboard" viewBox="0 0 1400 980" version="1.1" xmlns="http://www.w3.org/2000/svg" x="0px" y="0px" style="enable-background:new 0 0 336 235.2;" width="1400px" height="980px"><rect id="ee-background" x="0" y="0" width="1400" height="980" style="fill: white; fill-opacity: 0; pointer-events: none;"/><g transform="matrix(7.979132652282715, 0, 0, 7.979132652282715, -4322.849598852241, -353.74055193610843)"><g id="g-3" transform="matrix(1, 0, 0, 1, 0, 0)">
	<g id="g-4">
		<path class="st0" d="M652,46c27.6,0,50,22.4,50,50s-22.4,50-50,50s-50-22.4-50-50S624.4,46,652,46z" style="fill: rgb(0, 0, 0);" transform="matrix(1, 0, 0, 1, -22.237823597667216, 0.9957234446716612)"/>
	</g>
</g></g><g transform="matrix(1.5009572505950928, 0, 0, 1.5009572505950928, 318.1976576174852, 12.323760045092769)"><path d="M488,176H435.2002a103.81249,103.81249,0,0,1-91.76465-55.05859L333.647,102.58789A87.85219,87.85219,0,0,0,288,62.002V48a32,32,0,0,0-64,0V62.002a87.85457,87.85457,0,0,0-45.64746,40.58594l-9.7876,18.35352A103.81381,103.81381,0,0,1,76.7998,176H24a8.00008,8.00008,0,0,0-8,8v32a8.00008,8.00008,0,0,0,8,8H76.57812L50.39624,296H40a8.00008,8.00008,0,0,0-8,8,64,64,0,0,0,128,0,8.00008,8.00008,0,0,0-8-8H141.60376l-26.18188-72h19.51367a95.96823,95.96823,0,0,0,63.21631-23.75293l21.05371-18.42285A55.85554,55.85554,0,0,1,224,178.08691V390.11133L211.05566,416H192a7.99927,7.99927,0,0,0-6.3999,3.2002L164.00024,448H128a8.00008,8.00008,0,0,0-8,8v32a8.00008,8.00008,0,0,0,8,8H384a8.00008,8.00008,0,0,0,8-8V456a8.00008,8.00008,0,0,0-8-8H347.99976L326.3999,419.2002A7.99927,7.99927,0,0,0,320,416H300.94434L288,390.11133V178.08691a55.85554,55.85554,0,0,1,4.79443,3.73731H292.794l21.05419,18.42285A95.96823,95.96823,0,0,0,377.06445,224h19.51367l-26.18188,72H360a8.00008,8.00008,0,0,0-8,8,64,64,0,0,0,128,0,8.00008,8.00008,0,0,0-8-8H461.60376l-26.18188-72H488a8.00008,8.00008,0,0,0,8-8V184A8.00008,8.00008,0,0,0,488,176ZM240,48a16,16,0,0,1,32,0v9.46777a87.941,87.941,0,0,0-32,0ZM96,352a48.07871,48.07871,0,0,1-47.3335-40h94.667A48.07871,48.07871,0,0,1,96,352Zm28.57812-56H67.42188l26.18188-72h4.79248ZM376,480H136V464H376Zm-48-32H184l12-16H316Zm-55.15527-52.42188L283.05566,416H228.94434l10.21093-20.42188A7.99934,7.99934,0,0,0,240,392V170.35352a55.56338,55.56338,0,0,1,32,0V392A7.99934,7.99934,0,0,0,272.84473,395.57812ZM416,352a48.07871,48.07871,0,0,1-47.3335-40h94.667A48.07871,48.07871,0,0,1,416,352Zm28.57812-56H387.42188l26.18188-72h4.79248ZM480,208H377.06445a79.97228,79.97228,0,0,1-52.68017-19.79395l-21.0542-18.42285h-.00049a71.87558,71.87558,0,0,0-94.65967,0l-21.0542,18.42285A79.97228,79.97228,0,0,1,134.93555,208H32V192H76.7998a119.78374,119.78374,0,0,0,105.88282-63.5293l9.78759-18.35351a72.00063,72.00063,0,0,1,127.05909,0l9.78857,18.35351A119.78241,119.78241,0,0,0,435.2002,192H480Z" style="fill: rgb(253, 255, 240);"/><path d="M256,88a24,24,0,1,0,24,24A24.02718,24.02718,0,0,0,256,88Zm0,32a8,8,0,1,1,8-8A8.00917,8.00917,0,0,1,256,120Z" style="fill: rgb(253, 255, 240);"/></g><path d="M 675.4166870117188 780.3909912109375 L 679.4766845703125 772.5809936523438 L 682.5167236328125 772.5809936523438 L 676.8167114257812 783.0709838867188 L 676.8167114257812 789.7109985351562 L 673.9967041015625 789.7109985351562 L 673.9967041015625 783.1610107421875 L 668.3167114257812 772.5809936523438 L 671.36669921875 772.5809936523438 L 675.4166870117188 780.3909912109375 ZM 699.9893798828125 781.1209716796875 C 699.9893798828125 783.9076538085938 699.292724609375 786.0743408203125 697.8994140625 787.6209716796875 C 696.506103515625 789.1676635742188 694.53271484375 789.9409790039062 691.9794311523438 789.9409790039062 C 689.3927612304688 789.9409790039062 687.4060668945312 789.17431640625 686.0194091796875 787.6409912109375 C 684.6327514648438 786.107666015625 683.9393920898438 783.9276733398438 683.9393920898438 781.1010131835938 C 683.9393920898438 778.2676391601562 684.6360473632812 776.0943603515625 686.0294189453125 774.5809936523438 C 687.4227294921875 773.0676879882812 689.4127197265625 772.3109741210938 691.9993896484375 772.3109741210938 C 694.5460815429688 772.3109741210938 696.5160522460938 773.0809936523438 697.909423828125 774.6209716796875 C 699.2960815429688 776.1543579101562 699.9893798828125 778.3209838867188 699.9893798828125 781.1209716796875 M 686.909423828125 781.1209716796875 C 686.909423828125 783.2276611328125 687.3360595703125 784.82763671875 688.1893920898438 785.9210205078125 C 689.042724609375 787.0076904296875 690.3060913085938 787.551025390625 691.9794311523438 787.551025390625 C 693.639404296875 787.551025390625 694.8927612304688 787.0143432617188 695.7393798828125 785.9409790039062 C 696.5927734375 784.8610229492188 697.0194091796875 783.2543334960938 697.0194091796875 781.1209716796875 C 697.0194091796875 779.02099609375 696.5994262695312 777.4276733398438 695.7593994140625 776.3410034179688 C 694.91943359375 775.2543334960938 693.6660766601562 774.7109985351562 691.9993896484375 774.7109985351562 C 690.3193969726562 774.7109985351562 689.052734375 775.2543334960938 688.1994018554688 776.3410034179688 C 687.3394165039062 777.4276733398438 686.909423828125 779.02099609375 686.909423828125 781.1209716796875 ZM 717.0994262695312 772.5809936523438 L 717.0994262695312 783.6610107421875 C 717.0994262695312 784.9276733398438 716.8294067382812 786.0376586914062 716.2894287109375 786.9910278320312 C 715.7427368164062 787.9376831054688 714.9561157226562 788.6676635742188 713.929443359375 789.1809692382812 C 712.9027709960938 789.6876831054688 711.6760864257812 789.9409790039062 710.2494506835938 789.9409790039062 C 708.1227416992188 789.9409790039062 706.4694213867188 789.3809814453125 705.2894287109375 788.260986328125 C 704.1094360351562 787.1343383789062 703.5194091796875 785.587646484375 703.5194091796875 783.6209716796875 L 703.5194091796875 772.5809936523438 L 706.3294067382812 772.5809936523438 L 706.3294067382812 783.4210205078125 C 706.3294067382812 784.8343505859375 706.659423828125 785.877685546875 707.3193969726562 786.551025390625 C 707.9727783203125 787.2176513671875 708.9794311523438 787.551025390625 710.3394165039062 787.551025390625 C 712.9794311523438 787.551025390625 714.2994384765625 786.164306640625 714.2994384765625 783.3909912109375 L 714.2994384765625 772.5809936523438 L 717.0994262695312 772.5809936523438 ZM 724.2813110351562 780.551025390625 L 726.2313232421875 780.551025390625 C 727.5313110351562 780.551025390625 728.4746704101562 780.3076782226562 729.0613403320312 779.8209838867188 C 729.64794921875 779.3343505859375 729.9412841796875 778.6143188476562 729.9412841796875 777.6610107421875 C 729.9412841796875 776.6943359375 729.6246337890625 776.0009765625 728.9913330078125 775.5809936523438 C 728.3579711914062 775.1543579101562 727.4046630859375 774.9409790039062 726.1312866210938 774.9409790039062 L 724.2813110351562 774.9409790039062 L 724.2813110351562 780.551025390625 M 724.2813110351562 782.8709716796875 L 724.2813110351562 789.7109985351562 L 721.4813232421875 789.7109985351562 L 721.4813232421875 772.5809936523438 L 726.3212890625 772.5809936523438 C 728.53466796875 772.5809936523438 730.1713256835938 772.9943237304688 731.2313232421875 773.8209838867188 C 732.2979736328125 774.6476440429688 732.831298828125 775.8976440429688 732.831298828125 777.5709838867188 C 732.831298828125 779.704345703125 731.7213134765625 781.2243041992188 729.5013427734375 782.1309814453125 L 734.34130859375 789.7109985351562 L 731.1513061523438 789.7109985351562 L 727.0513305664062 782.8709716796875 L 724.2813110351562 782.8709716796875 ZM 743.0548706054688 789.7109985351562 L 743.0548706054688 772.5809936523438 L 745.8548583984375 772.5809936523438 L 745.8548583984375 787.3109741210938 L 753.1148681640625 787.3109741210938 L 753.1148681640625 789.7109985351562 L 743.0548706054688 789.7109985351562 ZM 766.6922607421875 789.7109985351562 L 764.9822387695312 784.9509887695312 L 758.4322509765625 784.9509887695312 L 756.7522583007812 789.7109985351562 L 753.80224609375 789.7109985351562 L 760.2122192382812 772.510986328125 L 763.2622680664062 772.510986328125 L 769.6722412109375 789.7109985351562 L 766.6922607421875 789.7109985351562 M 764.2422485351562 782.541015625 L 762.6422729492188 777.8709716796875 C 762.522216796875 777.5643310546875 762.35888671875 777.0743408203125 762.1522216796875 776.4010009765625 C 761.945556640625 775.7276611328125 761.80224609375 775.2343139648438 761.7222290039062 774.9210205078125 C 761.5155639648438 775.8809814453125 761.2089233398438 776.9309692382812 760.80224609375 778.0709838867188 L 759.2522583007812 782.541015625 L 764.2422485351562 782.541015625 ZM 787.7389526367188 789.7109985351562 L 784.68896484375 789.7109985351562 L 781.7889404296875 779.4910278320312 C 781.6622924804688 779.0443115234375 781.505615234375 778.4010009765625 781.3189697265625 777.5609741210938 C 781.1322631835938 776.7210083007812 781.0189208984375 776.1376953125 780.9789428710938 775.8109741210938 C 780.89892578125 776.3109741210938 780.7722778320312 776.9609985351562 780.5989379882812 777.760986328125 C 780.4189453125 778.5543212890625 780.2722778320312 779.1476440429688 780.158935546875 779.541015625 L 777.3189697265625 789.7109985351562 L 774.2789306640625 789.7109985351562 L 772.0589599609375 781.1309814453125 L 769.8089599609375 772.5809936523438 L 772.6689453125 772.5809936523438 L 775.1189575195312 782.5609741210938 C 775.4989624023438 784.1610107421875 775.7722778320312 785.5743408203125 775.93896484375 786.801025390625 C 776.025634765625 786.1409912109375 776.1556396484375 785.4010009765625 776.3289184570312 784.5809936523438 C 776.49560546875 783.760986328125 776.6522827148438 783.0943603515625 776.7989501953125 782.5809936523438 L 779.5789184570312 772.5809936523438 L 782.3589477539062 772.5809936523438 L 785.2189331054688 782.6309814453125 C 785.4923095703125 783.5643310546875 785.7822875976562 784.954345703125 786.0889282226562 786.801025390625 C 786.2022705078125 785.6876831054688 786.4822998046875 784.2676391601562 786.928955078125 782.541015625 L 789.3689575195312 772.5809936523438 L 792.2089233398438 772.5809936523438 L 787.7389526367188 789.7109985351562 ZM 799.4674072265625 780.3909912109375 L 803.5274047851562 772.5809936523438 L 806.5674438476562 772.5809936523438 L 800.867431640625 783.0709838867188 L 800.867431640625 789.7109985351562 L 798.0474243164062 789.7109985351562 L 798.0474243164062 783.1610107421875 L 792.367431640625 772.5809936523438 L 795.4174194335938 772.5809936523438 L 799.4674072265625 780.3909912109375 ZM 818.5200805664062 789.7109985351562 L 808.830078125 789.7109985351562 L 808.830078125 772.5809936523438 L 818.5200805664062 772.5809936523438 L 818.5200805664062 774.9409790039062 L 811.6300659179688 774.9409790039062 L 811.6300659179688 779.6110229492188 L 818.090087890625 779.6110229492188 L 818.090087890625 781.9509887695312 L 811.6300659179688 781.9509887695312 L 811.6300659179688 787.3309936523438 L 818.5200805664062 787.3309936523438 L 818.5200805664062 789.7109985351562 ZM 825.0242309570312 780.551025390625 L 826.9742431640625 780.551025390625 C 828.2742309570312 780.551025390625 829.2175903320312 780.3076782226562 829.8042602539062 779.8209838867188 C 830.390869140625 779.3343505859375 830.6842041015625 778.6143188476562 830.6842041015625 777.6610107421875 C 830.6842041015625 776.6943359375 830.3675537109375 776.0009765625 829.7342529296875 775.5809936523438 C 829.1008911132812 775.1543579101562 828.1475830078125 774.9409790039062 826.8742065429688 774.9409790039062 L 825.0242309570312 774.9409790039062 L 825.0242309570312 780.551025390625 M 825.0242309570312 782.8709716796875 L 825.0242309570312 789.7109985351562 L 822.2242431640625 789.7109985351562 L 822.2242431640625 772.5809936523438 L 827.064208984375 772.5809936523438 C 829.277587890625 772.5809936523438 830.9142456054688 772.9943237304688 831.9742431640625 773.8209838867188 C 833.0408935546875 774.6476440429688 833.57421875 775.8976440429688 833.57421875 777.5709838867188 C 833.57421875 779.704345703125 832.4642333984375 781.2243041992188 830.2442626953125 782.1309814453125 L 835.084228515625 789.7109985351562 L 831.8942260742188 789.7109985351562 L 827.7942504882812 782.8709716796875 L 825.0242309570312 782.8709716796875 Z" transform="matrix(5.100343227386475, -0.0006618101615458727, 0.0006618101615458727, 5.100343227386475, -3115.36865234375, -3081.359130859375)" style="fill: rgb(27, 27, 27); white-space: pre; color: rgb(27, 27, 27);"/></svg>